<?xml version="1.0" encoding="UTF-8"?>
<svg xmlns="http://www.w3.org/2000/svg" version="1.1" viewBox="0 0 832.06 108.55">
  <!-- Generator: Adobe Illustrator 28.7.5, SVG Export Plug-In . SVG Version: 1.2.0 Build 176)  -->
  <g>
    <g id="Layer_1">
      <g>
        <path d="M86.46,42.28c0,11.81-3.95,21.34-11.85,28.59-7.9,7.25-18.58,10.87-32.04,10.87-1.69,0-5.1-.08-10.24-.23-5.29-.15-8.82-.23-10.58-.23-7.13,0-14.08.15-20.83.46-.61,0-.92-.54-.92-1.61,0-.96.31-1.48.92-1.55,3.18-.38,5.62-.89,7.31-1.53,1.69-.63,2.87-1.49,3.54-2.56.67-1.07,1.01-2.96,1.01-5.64V14.91c0-2.65-.32-4.52-.95-5.61-.63-1.09-1.79-1.97-3.48-2.62-1.69-.65-4.16-1.17-7.42-1.55-.61,0-.92-.53-.92-1.58s.31-1.58.92-1.58c4.49.31,11.43.46,20.83.46,1.76,0,5.29-.06,10.58-.17,5.14-.12,8.55-.17,10.24-.17,13.12,0,23.71,3.75,31.78,11.25,8.07,7.5,12.11,17.15,12.11,28.97ZM73.81,42.28c0-10.45-2.98-19.14-8.95-26.07-5.96-6.93-13.43-10.4-22.41-10.4h-.35l-10.82.23c-4.53.15-6.79,2.38-6.79,6.68v58.37c0,4.38,2.26,6.57,6.79,6.57l10.82.35c8.94,0,16.45-3.41,22.55-10.23,6.1-6.82,9.15-15.32,9.15-25.5Z"/>
        <path d="M182.4,58.62c0,7.63-2.27,13.7-6.8,18.21-4.53,4.51-10.66,6.76-18.37,6.76-3.42,0-7.51-.61-12.27-1.84-4.34-1.15-7.89-1.73-10.66-1.73-.23-6.52-.69-13.04-1.38-19.56,0-.61.58-.92,1.73-.92.81,0,1.3.31,1.5.92,2.07,7.13,4.72,12.16,7.95,15.07,3.23,2.92,7.75,4.37,13.58,4.37,4.64,0,8.23-1.34,10.78-4.03,2.55-2.68,3.82-6.44,3.82-11.28,0-3.11-1.11-5.99-3.34-8.66-2.22-2.67-6.96-6.11-14.21-10.33-8.32-4.79-13.77-8.86-16.34-12.2-2.57-3.34-3.85-7.04-3.85-11.1,0-6.25,2.31-11.53,6.94-15.85s10.49-6.47,17.6-6.47c2.69,0,5.78.36,9.27,1.09,3.26.65,6.09.98,8.47.98.46,6.75,1.08,12.69,1.84,17.83,0,.61-.5.92-1.5.92-1.07,0-1.67-.31-1.78-.92-1.27-5.75-3.19-9.89-5.76-12.43-2.57-2.53-6.13-3.8-10.68-3.8s-7.74,1.27-10.29,3.8c-2.54,2.53-3.81,5.95-3.81,10.24,0,2.72,1.07,5.32,3.2,7.79,2.13,2.47,6.76,5.78,13.88,9.92,8.42,4.91,13.95,9.01,16.56,12.31,2.62,3.3,3.92,6.92,3.92,10.87Z"/>
        <path d="M223.17,3.31c0,1.06-.31,1.58-.92,1.58-3.26.38-5.73.89-7.42,1.53-1.69.63-2.87,1.5-3.54,2.59-.67,1.09-1.01,2.98-1.01,5.67v50.94c0,7.14-1.56,14.05-4.69,20.75-3.13,6.7-7.27,12.07-12.43,16.12-5.16,4.05-10.5,6.07-16.02,6.07-3.22,0-5.77-.68-7.65-2.04-1.88-1.36-2.82-3.17-2.82-5.44s.79-3.93,2.36-5.35c1.57-1.42,3.59-2.13,6.04-2.13,1.23,0,2.32.25,3.28.75.96.5,2.11,1.53,3.45,3.11,1.8,2.19,3.51,3.28,5.12,3.28,3.53,0,6.35-2.77,8.46-8.32,2.11-5.55,3.16-13.4,3.16-23.57V14.68c0-2.65-.32-4.52-.95-5.61-.63-1.09-1.79-1.97-3.48-2.62-1.69-.65-4.16-1.17-7.42-1.55-.61,0-.92-.53-.92-1.58s.31-1.58.92-1.58c2.57,0,5.62.12,9.15.35,3.37.23,6.23.35,8.57.35s5.22-.11,8.63-.35c3.57-.23,6.63-.35,9.2-.35.61,0,.92.53.92,1.58Z"/>
        <path d="M308.05,3.31c0,1.06-.31,1.58-.92,1.58-4.83.61-8.07,1.51-9.72,2.68-1.65,1.17-2.47,3.54-2.47,7.11v36.1c0,10.25-2.47,18.28-7.41,24.09-4.94,5.81-11.92,8.72-20.92,8.72-10.27,0-18.28-2.77-24.02-8.32-5.75-5.55-8.62-13.1-8.62-22.65V14.68c0-2.65-.32-4.52-.95-5.61-.63-1.09-1.79-1.97-3.48-2.62-1.69-.65-4.16-1.17-7.42-1.55-.61,0-.92-.53-.92-1.58s.31-1.58.92-1.58c2.57,0,5.62.12,9.15.35,3.37.23,6.23.35,8.57.35s5.22-.11,8.63-.35c3.57-.23,6.63-.35,9.2-.35.61,0,.92.53.92,1.58s-.31,1.58-.92,1.58c-3.26.38-5.73.89-7.42,1.53-1.69.63-2.87,1.5-3.54,2.59-.67,1.09-1.01,2.98-1.01,5.67v36.33c0,9.44,1.78,16.37,5.35,20.78,3.57,4.41,9.38,6.62,17.43,6.62,15.15,0,22.72-9.6,22.72-28.79V14.68c0-3.57-.85-5.96-2.56-7.17-1.71-1.21-4.92-2.08-9.64-2.62-.61,0-.92-.53-.92-1.58s.31-1.58.92-1.58c1.76,0,4.07.12,6.94.35,2.94.23,5.33.35,7.17.35s4.14-.11,6.9-.35c2.84-.23,5.22-.35,7.13-.35.61,0,.92.53.92,1.58Z"/>
        <path d="M400.41,3.34c0,.96-.31,1.48-.92,1.55-4.79.54-8.08,1.42-9.87,2.65-1.78,1.23-2.71,3.59-2.79,7.09l-1.27,67.81c0,.77-.46,1.15-1.38,1.15-.46,0-1.07-.31-1.84-.92l-59.31-67.02-.81,53.21c-.04.31-.06.6-.06.86,0,2.92.92,4.98,2.76,6.18,1.84,1.21,5.16,2.1,9.95,2.68.61.08.92.6.92,1.55,0,1.07-.31,1.61-.92,1.61-1.99,0-4.74-.12-8.23-.35-3.26-.23-5.77-.35-7.54-.35-1.92,0-4.51.12-7.77.35-3.15.23-5.58.35-7.31.35-.61,0-.92-.54-.92-1.61,0-.96.34-1.48,1.04-1.55,4.76-.58,8.02-1.47,9.78-2.68,1.76-1.21,2.7-3.56,2.82-7.05l2.01-54.18v-.52c0-3.11-.9-5.28-2.7-6.5-1.8-1.23-5.16-2.15-10.07-2.76-.54,0-.81-.53-.81-1.58s.31-1.58.92-1.58c1.34,0,3.22.12,5.64.35,2.15.23,3.76.35,4.83.35,1.34,0,2.95-.11,4.83-.35,1.92-.23,3.57-.35,4.95-.35l55.4,61.96V14.63c0-3.27-.93-5.56-2.79-6.89-1.86-1.33-5.3-2.28-10.33-2.85-.61-.08-.92-.59-.92-1.55,0-1.07.31-1.61.92-1.61,2.07,0,4.83.12,8.28.35,3.22.23,5.71.35,7.48.35,1.92,0,4.51-.11,7.77-.35,3.14-.23,5.58-.35,7.31-.35.61,0,.92.54.92,1.61Z"/>
        <path d="M475.43,60.46c-1.38,6.14-2.72,12.66-4.03,19.56-2.19,0-6.15.52-11.91,1.55-7.36,1.34-12.81,2.01-16.34,2.01-8.74,0-16.42-1.73-23.01-5.18-6.6-3.45-11.74-8.39-15.42-14.81-3.68-6.42-5.52-13.57-5.52-21.43s1.95-14.89,5.84-21.43c3.89-6.54,9.25-11.63,16.08-15.27,6.83-3.64,14.52-5.46,23.07-5.46,3.6,0,8.44.38,14.5,1.15,4.72.61,8.15.92,10.3.92.5,5.37,1.38,11.89,2.65,19.56,0,.61-.61.92-1.84.92-.77,0-1.23-.31-1.38-.92-1.38-5.22-4.35-9.51-8.92-12.89-4.56-3.37-9.82-5.06-15.76-5.06-9.01,0-16.58,3.72-22.7,11.16-6.12,7.44-9.17,16.55-9.17,27.33s3.03,19.38,9.09,26.72c6.06,7.34,13.46,11.02,22.21,11.02,13.69,0,23.39-6.48,29.11-19.44.27-.61.79-.92,1.55-.92,1.07,0,1.61.31,1.61.92Z"/>
        <path d="M559.61,20.65c0,.73-.69,1.09-2.07,1.09-.61,0-1-.27-1.15-.81-1.65-5.41-4.01-9.23-7.08-11.48-3.07-2.24-7.61-3.37-13.63-3.37h-5.41c-1.88,0-3.16.31-3.85.92-.69.61-1.04,1.76-1.04,3.45v58.39c0,2.65.33,4.52,1.01,5.61.67,1.09,1.86,1.96,3.57,2.59,1.71.63,4.15,1.14,7.33,1.52.61.08.92.6.92,1.55,0,1.07-.31,1.61-.92,1.61-2.57,0-5.64-.12-9.2-.35-3.38-.23-6.21-.35-8.49-.35s-5.24.12-8.66.35c-3.57.23-6.64.35-9.2.35-.61,0-.92-.54-.92-1.61,0-.96.31-1.48.92-1.55,4.64-.54,7.79-1.4,9.46-2.59,1.67-1.19,2.5-3.57,2.5-7.13V10.47c0-1.69-.35-2.84-1.04-3.45-.69-.61-1.99-.92-3.91-.92h-4.49c-5.41,0-10.32,1.37-14.73,4.11-4.41,2.74-7.29,6.3-8.63,10.67-.19.58-.61.86-1.27.86-1.3,0-1.96-.42-1.96-1.27,2.15-5.79,4.18-12.35,6.1-19.67,5.22,1.07,17.16,1.61,35.81,1.61s31.34-.54,36.56-1.61c.54,4.99,1.69,11.6,3.45,19.85Z"/>
        <path d="M686.03,42.17c0,12.16-3.91,22.1-11.74,29.83-7.82,7.73-18.04,11.59-30.66,11.59s-22.83-3.86-30.63-11.59c-7.81-7.73-11.71-17.67-11.71-29.83s3.93-22.27,11.79-30.23c7.86-7.96,18.04-11.94,30.55-11.94s22.74,3.98,30.6,11.94c7.86,7.96,11.79,18.03,11.79,30.23ZM673.38,42.17c0-11.31-2.73-20.56-8.2-27.73-5.46-7.17-12.65-10.76-21.54-10.76s-16.12,3.59-21.54,10.76c-5.43,7.17-8.14,16.42-8.14,27.73s2.69,20.34,8.08,27.3c5.39,6.96,12.59,10.44,21.6,10.44s16.17-3.48,21.6-10.44,8.14-16.06,8.14-27.3Z"/>
        <path d="M782.25,3.34c0,.96-.31,1.48-.92,1.55-4.79.54-8.08,1.42-9.87,2.65-1.78,1.23-2.71,3.59-2.79,7.09l-1.27,67.81c0,.77-.46,1.15-1.38,1.15-.46,0-1.07-.31-1.84-.92l-59.31-67.02-.81,53.21c-.04.31-.06.6-.06.86,0,2.92.92,4.98,2.76,6.18,1.84,1.21,5.16,2.1,9.95,2.68.61.08.92.6.92,1.55,0,1.07-.31,1.61-.92,1.61-1.99,0-4.74-.12-8.23-.35-3.26-.23-5.77-.35-7.54-.35-1.92,0-4.51.12-7.77.35-3.15.23-5.58.35-7.31.35-.61,0-.92-.54-.92-1.61,0-.96.34-1.48,1.04-1.55,4.75-.58,8.02-1.47,9.78-2.68,1.76-1.21,2.7-3.56,2.82-7.05l2.01-54.18v-.52c0-3.11-.9-5.28-2.7-6.5s-5.16-2.15-10.07-2.76c-.54,0-.81-.53-.81-1.58s.31-1.58.92-1.58c1.34,0,3.22.12,5.64.35,2.15.23,3.76.35,4.83.35,1.34,0,2.95-.11,4.83-.35,1.92-.23,3.57-.35,4.95-.35l55.4,61.96V14.63c0-3.27-.93-5.56-2.79-6.89s-5.3-2.28-10.33-2.85c-.61-.08-.92-.59-.92-1.55,0-1.07.31-1.61.92-1.61,2.07,0,4.83.12,8.28.35,3.22.23,5.71.35,7.48.35,1.92,0,4.51-.11,7.77-.35,3.14-.23,5.58-.35,7.31-.35.61,0,.92.54.92,1.61Z"/>
        <path d="M832.06,58.62c0,7.63-2.27,13.7-6.8,18.21-4.53,4.51-10.66,6.76-18.37,6.76-3.42,0-7.51-.61-12.27-1.84-4.34-1.15-7.89-1.73-10.66-1.73-.23-6.52-.69-13.04-1.38-19.56,0-.61.58-.92,1.73-.92.8,0,1.3.31,1.5.92,2.07,7.13,4.72,12.16,7.95,15.07,3.23,2.92,7.75,4.37,13.58,4.37,4.64,0,8.23-1.34,10.78-4.03,2.55-2.68,3.82-6.44,3.82-11.28,0-3.11-1.11-5.99-3.34-8.66-2.22-2.67-6.96-6.11-14.21-10.33-8.32-4.79-13.77-8.86-16.34-12.2-2.57-3.34-3.85-7.04-3.85-11.1,0-6.25,2.31-11.53,6.94-15.85,4.63-4.31,10.49-6.47,17.6-6.47,2.69,0,5.78.36,9.27,1.09,3.26.65,6.09.98,8.47.98.46,6.75,1.07,12.69,1.84,17.83,0,.61-.5.92-1.5.92-1.07,0-1.67-.31-1.78-.92-1.27-5.75-3.19-9.89-5.76-12.43s-6.13-3.8-10.68-3.8-7.74,1.27-10.29,3.8c-2.54,2.53-3.82,5.95-3.82,10.24,0,2.72,1.07,5.32,3.2,7.79,2.13,2.47,6.76,5.78,13.88,9.92,8.42,4.91,13.94,9.01,16.56,12.31,2.62,3.3,3.92,6.92,3.92,10.87Z"/>
      </g>
      <polygon points="555.34 81.85 548.02 77.5 592.89 1.67 600.21 6.01 555.34 81.85"/>
      <polygon points="89.45 81.85 82.14 77.5 127.01 1.67 134.32 6.01 89.45 81.85"/>
    </g>
  </g>
</svg>