<?xml version="1.0" encoding="UTF-8"?>
<svg xmlns="http://www.w3.org/2000/svg" version="1.1" viewBox="0 0 832.1 24.8">
  <!-- Generator: Adobe Illustrator 28.7.5, SVG Export Plug-In . SVG Version: 1.2.0 Build 176)  -->
  <g>
    <g id="Layer_1">
      <path d="M197.2,0h9.2c-.4.9-.7,1.7-1.1,2.6-3.1,6.7-7.3,12.1-12.4,16.1-5.2,4-10.5,6.1-16,6.1s-5.8-.7-7.7-2-2.8-3.2-2.8-5.4.8-3.9,2.4-5.3,3.6-2.1,6-2.1,2.3.2,3.3.8,2.1,1.5,3.4,3.1c1.8,2.2,3.5,3.3,5.1,3.3,3.5,0,6.4-2.8,8.5-8.3.9-2.4,1.6-5.3,2.2-8.6Z"/>
    </g>
  </g>
</svg>