<?xml version="1.0" encoding="UTF-8"?>
<svg xmlns="http://www.w3.org/2000/svg" version="1.1" viewBox="0 0 832.1 83.8">
  <!-- Generator: Adobe Illustrator 28.7.5, SVG Export Plug-In . SVG Version: 1.2.0 Build 176)  -->
  <g>
    <g id="Layer_1">
      <g>
        <path d="M831.7,57.8h0c0,7.7-2.3,13.7-6.8,18.2-4.5,4.5-10.7,6.8-18.4,6.8s-7.5-.6-12.3-1.8c-4.3-1.1-7.9-1.7-10.7-1.7-.2-6.5-.7-13-1.4-19.6,0-.6.6-.9,1.7-.9s1.3.3,1.5.9c2.1,7.1,4.7,12.2,8,15.1,3.2,2.9,7.8,4.4,13.6,4.4s8.2-1.3,10.8-4c2.5-2.7,3.8-6.4,3.8-11.3s-1.1-6-3.3-8.7c-2.2-2.7-7-6.1-14.2-10.3-8.3-4.8-13.8-8.9-16.3-12.2s-3.8-7-3.8-11.1c0-6.2,2.3-11.5,6.9-15.9,4.6-4.3,10.5-6.5,17.6-6.5s5.8.4,9.3,1.1c3.3.7,6.1,1,8.5,1,.5,6.8,1.1,12.7,1.8,17.8,0,.6-.5.9-1.5.9s-1.7-.3-1.8-.9c-1.3-5.8-3.2-9.9-5.8-12.4s-6.1-3.8-10.7-3.8-7.7,1.3-10.3,3.8c-2.5,2.5-3.8,5.9-3.8,10.2s1.1,5.3,3.2,7.8,6.8,5.8,13.9,9.9c8.4,4.9,13.9,9,16.6,12.3,2.6,3.3,3.9,6.9,3.9,10.9Z"/>
        <path d="M781.9,2.5h0c0,1-.3,1.5-.9,1.6-4.8.5-8.1,1.4-9.9,2.6-1.8,1.2-2.7,3.6-2.8,7.1l-1.3,67.8c0,.8-.5,1.1-1.4,1.1s-1.1-.3-1.8-.9l-59.3-67-.8,53.2c0,.3,0,.6,0,.9,0,2.9.9,5,2.8,6.2,1.8,1.2,5.2,2.1,10,2.7.6,0,.9.6.9,1.6s-.3,1.6-.9,1.6c-2,0-4.7-.1-8.2-.4-3.3-.2-5.8-.4-7.5-.4s-4.5.1-7.8.4c-3.1.2-5.6.4-7.3.4s-.9-.5-.9-1.6.3-1.5,1-1.6c4.8-.6,8-1.5,9.8-2.7s2.7-3.6,2.8-7.1l2-54.2v-.5c0-3.1-.9-5.3-2.7-6.5s-5.2-2.1-10.1-2.8c-.5,0-.8-.5-.8-1.6s.3-1.6.9-1.6c1.3,0,3.2.1,5.6.4,2.1.2,3.8.4,4.8.4s3-.1,4.8-.4c1.9-.2,3.6-.4,5-.4l55.4,62V13.8c0-3.3-.9-5.6-2.8-6.9s-5.3-2.3-10.3-2.8c-.6,0-.9-.6-.9-1.6s.3-1.6.9-1.6c2.1,0,4.8.1,8.3.4,3.2.2,5.7.4,7.5.4s4.5-.1,7.8-.4c3.1-.2,5.6-.4,7.3-.4s.9.5.9,1.6Z"/>
        <path d="M685.7,41.3h0c0,12.2-3.9,22.1-11.7,29.8-7.8,7.7-18,11.6-30.7,11.6s-22.8-3.9-30.6-11.6c-7.8-7.7-11.7-17.7-11.7-29.8s3.9-22.3,11.8-30.2,18-11.9,30.6-11.9,22.7,4,30.6,11.9,11.8,18,11.8,30.2ZM664.9,68.6c5.4-7,8.1-16.1,8.1-27.3s-2.7-20.6-8.2-27.7c-5.5-7.2-12.7-10.8-21.5-10.8s-16.1,3.6-21.5,10.8c-5.4,7.2-8.1,16.4-8.1,27.7s2.7,20.3,8.1,27.3c5.4,7,12.6,10.4,21.6,10.4s16.2-3.5,21.6-10.4Z"/>
        <polygon points="599.9 5.2 555 81 547.7 76.7 592.5 .8 599.9 5.2"/>
        <path d="M559.2,19.8h0c0,.7-.7,1.1-2.1,1.1s-1-.3-1.2-.8c-1.7-5.4-4-9.2-7.1-11.5-3.1-2.2-7.6-3.4-13.6-3.4h-5.4c-1.9,0-3.2.3-3.9.9s-1,1.8-1,3.4v58.4c0,2.7.3,4.5,1,5.6.7,1.1,1.9,2,3.6,2.6s4.2,1.1,7.3,1.5c.6,0,.9.6.9,1.5s-.3,1.6-.9,1.6c-2.6,0-5.6-.1-9.2-.4-3.4-.2-6.2-.4-8.5-.4s-5.2.1-8.7.4c-3.6.2-6.6.4-9.2.4s-.9-.5-.9-1.6.3-1.5.9-1.5c4.6-.5,7.8-1.4,9.5-2.6s2.5-3.6,2.5-7.1V9.6c0-1.7-.4-2.8-1-3.5s-2-.9-3.9-.9h-4.5c-5.4,0-10.3,1.4-14.7,4.1s-7.3,6.3-8.6,10.7c-.2.6-.6.9-1.3.9-1.3,0-2-.4-2-1.3,2.2-5.8,4.2-12.4,6.1-19.7,5.2,1.1,17.2,1.6,35.8,1.6s31.3-.5,36.6-1.6c.5,5,1.7,11.6,3.5,19.8Z"/>
        <path d="M475.1,59.6h0c-1.4,6.1-2.7,12.6-4,19.5-2.2,0-6.1.5-11.9,1.6-7.4,1.3-12.8,2-16.3,2-8.7,0-16.4-1.7-23-5.2-6.6-3.5-11.7-8.4-15.4-14.8s-5.5-13.6-5.5-21.4,2-14.9,5.8-21.4,9.2-11.6,16.1-15.3,14.5-5.5,23.1-5.5,8.4.4,14.5,1.1c4.7.6,8.2.9,10.3.9.5,5.4,1.4,11.9,2.7,19.6,0,.6-.6.9-1.8.9s-1.2-.3-1.4-.9c-1.4-5.2-4.3-9.5-8.9-12.9-4.6-3.4-9.8-5.1-15.8-5.1-9,0-16.6,3.7-22.7,11.2-6.1,7.4-9.2,16.6-9.2,27.3s3,19.4,9.1,26.7c6.1,7.3,13.5,11,22.2,11,13.7,0,23.4-6.5,29.1-19.4.3-.6.8-.9,1.5-.9s1.6.3,1.6.9Z"/>
        <path d="M400,2.5h0c0,1-.3,1.5-.9,1.6-4.8.5-8.1,1.4-9.9,2.6-1.8,1.2-2.7,3.6-2.8,7.1l-1.3,67.8c0,.8-.5,1.1-1.4,1.1s-1.1-.3-1.8-.9l-59.3-67-.8,53.2c0,.3,0,.6,0,.9,0,2.9.9,5,2.8,6.2,1.8,1.2,5.2,2.1,9.9,2.7.6,0,.9.6.9,1.6s-.3,1.6-.9,1.6c-2,0-4.7-.1-8.2-.4-3.3-.2-5.8-.4-7.5-.4s-4.5.1-7.8.4c-3.1.2-5.6.4-7.3.4s-.9-.5-.9-1.6.3-1.5,1-1.6c4.8-.6,8-1.5,9.8-2.7s2.7-3.6,2.8-7.1l2-54.2v-.5c0-3.1-.9-5.3-2.7-6.5-1.7-1.2-4.9-2.1-9.5-2.7.2,0,.4,0,.6,0,.6,0,.9-.5.9-1.6h0c0-.9-.2-1.4-.7-1.5,1.2,0,2.6.2,4.4.3,2.1.2,3.8.4,4.8.4s2.9-.1,4.8-.4c1.9-.2,3.6-.4,4.9-.4l55.4,62V13.8c0-3.3-.9-5.6-2.8-6.9s-5.3-2.3-10.3-2.8c-.6,0-.9-.6-.9-1.6s.3-1.6.9-1.6c2.1,0,4.8.1,8.3.4,3.2.2,5.7.4,7.5.4s4.5-.1,7.8-.4c3.1-.2,5.6-.4,7.3-.4s.9.5.9,1.6Z"/>
        <path d="M307.7,2.5h0c0,1.1-.3,1.6-.9,1.6-.2,0-.4,0-.6,0-.2,0-.4,0-.6,0-.5,0-.8-.5-.8-1.6s.2-1.4.7-1.6h0c.2,0,.3,0,.5,0,0,0,.1,0,.2,0,.2,0,.5,0,.8,0,.5.1.7.6.7,1.5Z"/>
        <path d="M305.6,4.1c.2,0,.4,0,.6,0-4.5.6-7.6,1.5-9.2,2.6-1.6,1.2-2.5,3.5-2.5,7.1v36.1c0,10.2-2.5,18.3-7.4,24.1s-11.9,8.7-20.9,8.7-18.3-2.8-24-8.3c-5.8-5.5-8.6-13.1-8.6-22.6V13.9c0-2.7-.3-4.5-.9-5.6s-1.8-2-3.5-2.6c-1.7-.6-4.1-1.2-7.4-1.6,0,0,0,0,0,0,.6,0,.9-.5.9-1.6h0c0-1-.3-1.6-.9-1.6,2.5,0,5.6.1,9,.4,3.4.2,6.2.3,8.6.3s5.2-.1,8.6-.3c3.6-.2,6.6-.4,9.2-.4s.9.5.9,1.6-.3,1.6-.9,1.6c-3.3.4-5.7.9-7.4,1.5-1.7.6-2.9,1.5-3.5,2.6s-1,3-1,5.7v36.3c0,9.4,1.8,16.4,5.4,20.8s9.4,6.6,17.4,6.6c15.1,0,22.7-9.6,22.7-28.8V13.9c0-3.6-.8-6-2.6-7.2s-4.9-2.1-9.6-2.6c-.6,0-.9-.5-.9-1.6s.3-1.6.9-1.6c1.8,0,4.1.1,6.9.4,2.9.2,5.3.4,7.2.4s4.1-.1,6.9-.4c2.2-.2,4.2-.3,5.9-.3-.5.1-.7.6-.7,1.6s.3,1.6.8,1.6Z"/>
        <path d="M222.8,2.5h0c0,1.1-.3,1.6-.9,1.6s0,0,0,0h0c-.6,0-.9-.5-.9-1.6s.3-1.6.9-1.6h.1c.6,0,.9.5.9,1.6Z"/>
        <path d="M221.8,4.1h0c-3.2.4-5.7.9-7.3,1.5-1.7.6-2.9,1.5-3.5,2.6s-1,3-1,5.7v50.9c0,6.2-1.2,12.3-3.6,18.2h-9.2c.7-4.2,1-9.2,1-14.9V13.9c0-2.7-.3-4.5-.9-5.6s-1.8-2-3.5-2.6-4.2-1.2-7.4-1.6c-.6,0-.9-.5-.9-1.6s.3-1.6.9-1.6c2.6,0,5.6.1,9.1.4,3.4.2,6.2.3,8.6.3s5.2-.1,8.6-.3c3.5-.2,6.5-.4,9.1-.4-.6,0-.9.5-.9,1.6s.3,1.6.9,1.6Z"/>
        <path d="M182,57.8h0c0,7.7-2.3,13.7-6.8,18.2s-10.7,6.8-18.4,6.8-7.5-.6-12.3-1.8c-4.3-1.1-7.9-1.7-10.7-1.7-.2-6.5-.7-13-1.4-19.6,0-.6.6-.9,1.7-.9s1.3.3,1.5.9c2.1,7.1,4.7,12.2,7.9,15.1,3.2,2.9,7.8,4.4,13.6,4.4s8.2-1.3,10.8-4c2.6-2.7,3.8-6.4,3.8-11.3s-1.1-6-3.3-8.7c-2.2-2.7-7-6.1-14.2-10.3-8.3-4.8-13.8-8.9-16.3-12.2s-3.9-7-3.9-11.1c0-6.2,2.3-11.5,6.9-15.9s10.5-6.5,17.6-6.5,5.8.4,9.3,1.1c3.3.7,6.1,1,8.5,1,.5,6.8,1.1,12.7,1.8,17.8,0,.6-.5.9-1.5.9s-1.7-.3-1.8-.9c-1.3-5.8-3.2-9.9-5.8-12.4-2.6-2.5-6.1-3.8-10.7-3.8s-7.7,1.3-10.3,3.8c-2.5,2.5-3.8,5.9-3.8,10.2s1.1,5.3,3.2,7.8,6.8,5.8,13.9,9.9c8.4,4.9,13.9,9,16.6,12.3,2.6,3.3,3.9,6.9,3.9,10.9Z"/>
        <polygon points="134 5.2 89.1 81 81.8 76.7 126.7 .8 134 5.2"/>
        <path d="M86.1,41.5h0c0,11.8-3.9,21.3-11.8,28.6s-18.6,10.9-32,10.9-5.1,0-10.2-.2c-5.3-.1-8.8-.2-10.6-.2-7.1,0-14.1.1-20.8.5-.6,0-.9-.5-.9-1.6s.3-1.5.9-1.6c3.2-.4,5.6-.9,7.3-1.5,1.7-.6,2.9-1.5,3.5-2.6s1-3,1-5.6V14.1c0-2.6-.3-4.5-.9-5.6s-1.8-2-3.5-2.6-4.2-1.2-7.4-1.6c-.6,0-.9-.5-.9-1.6S0,1.1.6,1.1c4.5.3,11.4.5,20.8.5s5.3,0,10.6-.2c5.1-.1,8.6-.2,10.2-.2,13.1,0,23.7,3.8,31.8,11.2s12.1,17.1,12.1,29ZM73.4,41.5h0c0-10.4-3-19.1-8.9-26.1-6-6.9-13.4-10.4-22.4-10.4h-.3l-10.8.2c-4.5.1-6.8,2.4-6.8,6.7v58.4c0,4.4,2.3,6.6,6.8,6.6l10.8.3c8.9,0,16.4-3.4,22.6-10.2s9.1-15.3,9.1-25.5Z"/>
      </g>
      <g>
        <path d="M307.1,1.8c0,0,.2,0,.2,0-.3,0-.5,0-.8,0,.2,0,.4,0,.5,0Z"/>
        <path d="M306.4,1.8c-.2,0-.3,0-.5,0,0,0,.1,0,.2,0,.1,0,.2,0,.3,0Z"/>
      </g>
    </g>
  </g>
</svg>